# xmcd
#
# Track frame offsets:
#   150
#   17769
#   37220
#   54832
#   75194
#   93735
#   106956
#   118612
#   130730
#   144684
#   163648
#   182816
#   199492
#   216680
#   231857
#   247220
#   263577
#   274887
#
# Disc length: 3873 seconds
#
# Revision: 0
# Processed by: cddbd v1.5.2PL0 Copyright (c) Steve Scherf et al.
# Submitted via: Media_Universe 3.0
#
DISCID=0e0f1f12
DTITLE=Acda En De Munnik - Acda En De Munnik - Alle Singels CD 2
DYEAR=2013
DGENRE=Pop
TTITLE0=Acda En De Munnik - Als Het Vuur Gedoofd Is
TTITLE1=De Poema's - Mijn Houten Hart
TTITLE2=Acda En De Munnik - Ren Lenny Ren
TTITLE3=Acda En De Munnik - Verkeerd Verbonden
TTITLE4=Acda En De Munnik - Laat Me Slapen
TTITLE5=Acda En De Munnik - Totdat Ik Jou
TTITLE6=Acda En De Munnik - Hier Voor Jou
TTITLE7=Acda En De Munnik - Drie Keer Vallen
TTITLE8=Acda En De Munnik - Heel Veel Lieve Mensen
TTITLE9=De Poema's - Ik Mis Niets
TTITLE10=Acda En De Munnik - OL' 55
TTITLE11=Acda En De Munnik - Kom Nog Even Niet Naar Hier
TTITLE12=Acda En De Munnik - Vandaag Ben Ik Gaan Lopen
TTITLE13=Acda En De Munnik - Jaren Ver Van Hier
TTITLE14=Keizer En De Munnik - Kijk Me Na
TTITLE15=Acda En De Munnik - Ik Wou Dat  Je een Vreemde Was
TTITLE16=Acda En De Munnik - 't Is Stil (Aan De Overkant)
TTITLE17=Acda En De Munnik - Ik Blijf Jouw Leven Lang Bij Mij
EXTD=
EXTT0=
EXTT1=
EXTT2=
EXTT3=
EXTT4=
EXTT5=
EXTT6=
EXTT7=
EXTT8=
EXTT9=
EXTT10=
EXTT11=
EXTT12=
EXTT13=
EXTT14=
EXTT15=
EXTT16=
EXTT17=
PLAYORDER=
